<svg width="16" height="16" viewBox="0 0 16 16" fill="none" xmlns="http://www.w3.org/2000/svg">
<path d="M15.5555 0H5.77776C5.53209 0 5.3333 0.198792 5.3333 0.444458V1.33333C5.3333 1.579 5.53209 1.77779 5.77776 1.77779H12.9653L0.130134 14.6128C0.0450509 14.698 0.00171752 14.809 5.08545e-05 14.9205C-0.00169915 15.0364 0.0417175 15.1529 0.130134 15.2414L0.758551 15.8698C0.842259 15.9535 0.951093 15.9969 1.06084 15.9998C1.17851 16.003 1.29726 15.9596 1.38705 15.8698L14.2222 3.03471V10.2222C14.2222 10.4679 14.421 10.6667 14.6666 10.6667H15.5555C15.8012 10.6667 16 10.4679 16 10.2222V0.444458C16 0.198792 15.8012 0 15.5555 0Z" fill="#8B90A1"/>
</svg>
