<svg width="203" height="76" viewBox="0 0 203 76" fill="none" xmlns="http://www.w3.org/2000/svg">
<path d="M201.421 22.1377C202.098 26.435 200.201 31.0843 195.842 35.8705C191.492 40.6477 184.8 45.4318 176.218 49.9351C159.064 58.9368 134.567 66.7105 106.798 71.086C79.0285 75.4615 53.3277 75.5972 34.2371 72.3063C24.6865 70.66 16.8473 68.1656 11.2389 64.9575C5.62006 61.7433 2.3848 57.9028 1.70769 53.6054C1.03058 49.3081 2.92815 44.6588 7.28646 39.8726C11.6367 35.0954 18.329 30.3113 26.9106 25.808C44.0644 16.8063 68.5616 9.03259 96.331 4.65712C124.1 0.281644 149.801 0.145902 168.892 3.43678C178.442 5.08312 186.281 7.57752 191.89 10.7857C197.509 13.9998 200.744 17.8403 201.421 22.1377Z" stroke="#6E7492" stroke-width="2"/>
</svg>
